<svg width="57" height="58" viewBox="0 0 57 58" fill="none" xmlns="http://www.w3.org/2000/svg">
<path d="M56.9468 29.4491C56.9468 45.1746 44.1987 57.9227 28.4732 57.9227V57.9227V57.9227C12.7477 57.9227 -0.000363082 45.1746 -0.000363082 29.4491V28.5593C-0.000363082 12.8338 12.7477 0.0857236 28.4732 0.0857236V0.0857236C44.1987 0.0857236 56.9468 12.8338 56.9468 28.5593V29.0042V29.4491Z" fill="#D53831"/>
<path d="M16.4913 37.7653L35.7434 22.1521C35.943 21.9902 36.1452 22.0063 36.2994 22.1964L38.7444 25.2112C40.2862 27.1124 39.9809 29.4761 38.013 31.0721L24.893 41.7122C22.8109 43.4007 20.3406 43.153 18.7767 41.2246L16.4198 38.3185C16.2656 38.1284 16.2916 37.9272 16.4913 37.7653ZM34.8942 27.3431L21.7457 38.0063C21.4605 38.2376 21.4086 38.64 21.6509 38.9387C21.8932 39.2375 22.2625 39.3431 22.6048 39.0656L35.7533 28.4024C36.0385 28.1711 36.0904 27.7687 35.8261 27.4428C35.6059 27.1712 35.2365 27.0656 34.8942 27.3431Z" fill="#1F1F1F"/>
<path d="M19.1597 33.9364L38.4118 18.3232C38.6115 18.1613 38.6375 17.9602 38.4833 17.77L36.0384 14.7552C34.4965 12.854 32.1207 12.6646 30.1527 14.2606L17.0328 24.9007C14.9507 26.5893 14.683 29.0575 16.2469 30.9859L18.6037 33.8921C18.7579 34.0822 18.9601 34.0983 19.1597 33.9364ZM33.1574 18.0822L20.0089 28.7454C19.7237 28.9767 19.3193 28.9445 19.077 28.6457C18.8347 28.3469 18.8076 27.9637 19.1499 27.6861L32.2983 17.0229C32.5836 16.7916 32.9879 16.8239 33.2523 17.1498C33.4725 17.4214 33.4996 17.8046 33.1574 18.0822Z" fill="#1F1F1F"/>
</svg>
