<svg width="26" height="27" viewBox="0 0 26 27" fill="none" xmlns="http://www.w3.org/2000/svg">
<g filter="url(#filter0_i_155_12840)">
<path d="M23.1692 21.39L18.7963 17.4544C17.9217 18.329 16.6098 20.0781 13.1115 20.0781C9.61323 20.0781 8.30136 18.329 6.9895 17.0171L10.0505 13.5188H0.430176V24.0137L3.0539 21.39C4.36577 22.7018 8.21391 26.2002 13.1115 26.2002C18.0092 26.2002 21.7115 22.8476 23.1692 21.39Z" fill="#B5B6B5"/>
</g>
<g filter="url(#filter1_i_155_12840)">
<path d="M12.6742 10.8951L9.61323 7.39676C6.55221 9.14591 5.96916 12.2069 6.11493 13.5188H0.430176C0.430176 12.6442 0.514456 9.80978 1.30475 7.83404C2.17933 5.6476 4.07425 4.18998 5.24035 3.46116L2.61662 0.400146H12.6742L12.6742 10.8951Z" fill="#4D8DF4"/>
</g>
<g filter="url(#filter2_i_155_12840)">
<path d="M16.1726 13.0814L19.2336 10.0205C17.4845 6.95947 14.1319 6.52209 12.6743 6.52211V0.400146C13.9862 0.400153 17.4845 0.837435 19.2336 2.1493C20.8655 3.37321 22.1489 4.77292 22.7319 5.6475L25.793 3.02377V13.0814H16.1726Z" fill="#1B3CAC"/>
</g>
<path d="M16.1726 13.0814L19.2336 10.0205C17.4845 6.95947 14.1319 6.52209 12.6743 6.52211V0.400146C13.9862 0.400153 17.4845 0.837435 19.2336 2.1493C20.8655 3.37321 22.1489 4.77292 22.7319 5.6475L25.793 3.02377V13.0814H16.1726Z" stroke="black" stroke-width="0.172"/>
<defs>
<filter id="filter0_i_155_12840" x="0.430176" y="12.6588" width="23.5988" height="13.5414" filterUnits="userSpaceOnUse" color-interpolation-filters="sRGB">
<feFlood flood-opacity="0" result="BackgroundImageFix"/>
<feBlend mode="normal" in="SourceGraphic" in2="BackgroundImageFix" result="shape"/>
<feColorMatrix in="SourceAlpha" type="matrix" values="0 0 0 0 0 0 0 0 0 0 0 0 0 0 0 0 0 0 127 0" result="hardAlpha"/>
<feOffset dx="0.86" dy="-0.86"/>
<feGaussianBlur stdDeviation="0.43"/>
<feComposite in2="hardAlpha" operator="arithmetic" k2="-1" k3="1"/>
<feColorMatrix type="matrix" values="0 0 0 0 1 0 0 0 0 1 0 0 0 0 1 0 0 0 0.2 0"/>
<feBlend mode="normal" in2="shape" result="effect1_innerShadow_155_12840"/>
</filter>
<filter id="filter1_i_155_12840" x="0.430176" y="-0.459854" width="13.1041" height="13.9787" filterUnits="userSpaceOnUse" color-interpolation-filters="sRGB">
<feFlood flood-opacity="0" result="BackgroundImageFix"/>
<feBlend mode="normal" in="SourceGraphic" in2="BackgroundImageFix" result="shape"/>
<feColorMatrix in="SourceAlpha" type="matrix" values="0 0 0 0 0 0 0 0 0 0 0 0 0 0 0 0 0 0 127 0" result="hardAlpha"/>
<feOffset dx="0.86" dy="-0.86"/>
<feGaussianBlur stdDeviation="0.43"/>
<feComposite in2="hardAlpha" operator="arithmetic" k2="-1" k3="1"/>
<feColorMatrix type="matrix" values="0 0 0 0 0 0 0 0 0 0 0 0 0 0 0 0 0 0 0.1 0"/>
<feBlend mode="normal" in2="shape" result="effect1_innerShadow_155_12840"/>
</filter>
<filter id="filter2_i_155_12840" x="12.5884" y="-0.545791" width="14.1505" height="13.7133" filterUnits="userSpaceOnUse" color-interpolation-filters="sRGB">
<feFlood flood-opacity="0" result="BackgroundImageFix"/>
<feBlend mode="normal" in="SourceGraphic" in2="BackgroundImageFix" result="shape"/>
<feColorMatrix in="SourceAlpha" type="matrix" values="0 0 0 0 0 0 0 0 0 0 0 0 0 0 0 0 0 0 127 0" result="hardAlpha"/>
<feOffset dx="0.86" dy="-0.86"/>
<feGaussianBlur stdDeviation="0.43"/>
<feComposite in2="hardAlpha" operator="arithmetic" k2="-1" k3="1"/>
<feColorMatrix type="matrix" values="0 0 0 0 0 0 0 0 0 0 0 0 0 0 0 0 0 0 0.1 0"/>
<feBlend mode="normal" in2="shape" result="effect1_innerShadow_155_12840"/>
</filter>
</defs>
</svg>
