<svg width="57" height="58" viewBox="0 0 57 58" fill="none" xmlns="http://www.w3.org/2000/svg">
<path d="M56.9469 29.4434C56.9469 45.1689 44.1988 57.917 28.4733 57.917C12.7478 57.917 -0.000240326 45.1689 -0.000240326 29.4434V28.5536C-0.000240326 12.8281 12.7478 0.0800591 28.4733 0.0800591C44.1988 0.0800591 56.9469 12.8281 56.9469 28.5536V28.9985V29.4434Z" fill="#D53831"/>
<path d="M16.4913 37.7597L35.7434 22.1465C35.943 21.9846 36.1452 22.0007 36.2994 22.1909L38.7444 25.2056C40.2862 27.1069 39.9809 29.4705 38.013 31.0665L24.893 41.7066C22.8109 43.3951 20.3406 43.1474 18.7767 41.219L16.4198 38.3129C16.2656 38.1228 16.2916 37.9216 16.4913 37.7597ZM34.8942 27.3375L21.7457 38.0007C21.4605 38.232 21.4086 38.6344 21.6509 38.9331C21.8932 39.2319 22.2625 39.3375 22.6048 39.06L35.7533 28.3968C36.0385 28.1655 36.0904 27.7631 35.8261 27.4372C35.6059 27.1656 35.2365 27.06 34.8942 27.3375Z" fill="white"/>
<path d="M19.16 33.9307L38.4121 18.3175C38.6117 18.1556 38.6377 17.9545 38.4835 17.7643L36.0386 14.7496C34.4967 12.8483 32.121 12.659 30.153 14.255L17.033 24.895C14.9509 26.5836 14.6832 29.0519 16.2471 30.9802L18.604 33.8864C18.7581 34.0765 18.9603 34.0926 19.16 33.9307ZM33.1576 18.0765L20.0091 28.7397C19.7239 28.971 19.3195 28.9388 19.0773 28.64C18.835 28.3413 18.8079 27.958 19.1501 27.6805L32.2986 17.0172C32.5838 16.7859 32.9882 16.8182 33.2525 17.1441C33.4728 17.4157 33.4999 17.7989 33.1576 18.0765Z" fill="white"/>
</svg>
