<svg width="57" height="58" viewBox="0 0 57 58" fill="none" xmlns="http://www.w3.org/2000/svg">
<path d="M56.9469 29.4434C56.9469 45.1689 44.1988 57.917 28.4733 57.917C12.7478 57.917 -0.000240326 45.1689 -0.000240326 29.4434V28.5536C-0.000240326 12.8281 12.7478 0.0800591 28.4733 0.0800591C44.1988 0.0800591 56.9469 12.8281 56.9469 28.5536V28.9985V29.4434Z" fill="#D53831"/>
<path d="M16.4913 37.7596L35.7434 22.1465C35.943 21.9846 36.1452 22.0007 36.2994 22.1908L38.7444 25.2056C40.2862 27.1068 39.9809 29.4705 38.013 31.0665L24.893 41.7065C22.8109 43.3951 20.3406 43.1473 18.7767 41.219L16.4198 38.3128C16.2656 38.1227 16.2916 37.9215 16.4913 37.7596ZM34.8942 27.3375L21.7457 38.0007C21.4605 38.232 21.4086 38.6343 21.6509 38.9331C21.8932 39.2318 22.2625 39.3375 22.6048 39.0599L35.7533 28.3967C36.0385 28.1654 36.0904 27.7631 35.8261 27.4372C35.6059 27.1656 35.2365 27.0599 34.8942 27.3375Z" fill="#FFFFF9"/>
<path d="M19.16 33.9308L38.4121 18.3176C38.6117 18.1557 38.6377 17.9545 38.4835 17.7644L36.0386 14.7496C34.4967 12.8484 32.121 12.659 30.153 14.255L17.033 24.8951C14.9509 26.5836 14.6832 29.0519 16.2471 30.9803L18.604 33.8864C18.7581 34.0766 18.9603 34.0927 19.16 33.9308ZM33.1576 18.0766L20.0091 28.7398C19.7239 28.9711 19.3195 28.9388 19.0773 28.6401C18.835 28.3413 18.8079 27.9581 19.1501 27.6805L32.2986 17.0173C32.5838 16.786 32.9882 16.8182 33.2525 17.1442C33.4728 17.4158 33.4999 17.799 33.1576 18.0766Z" fill="#FFFFF9"/>
</svg>
