<svg width="66" height="44" viewBox="0 0 66 44" fill="none" xmlns="http://www.w3.org/2000/svg">
<path d="M36.9135 37.7979C36.8299 37.9861 36.7672 38.1952 36.6208 38.3415C36.2863 38.7179 35.8681 39.0106 35.5754 39.4079C34.9272 40.307 35.1363 41.2478 36.0354 41.8751C36.9344 42.4815 37.959 42.7533 39.0044 42.8787C40.6562 43.1087 42.2871 42.9415 43.7925 42.1678C45.0679 41.4988 46.0088 40.516 46.2597 39.0315C46.2597 38.9688 46.3224 38.927 46.4479 38.8852C46.4479 39.0733 46.4479 39.2615 46.4061 39.4497C45.9461 41.4778 44.5452 42.586 42.6634 43.1714C40.6144 43.7987 38.5653 43.7151 36.579 42.9205C36.1608 42.7533 35.7426 42.5442 35.429 42.2515C35.0945 41.9378 34.8018 41.896 34.3627 41.9797C32.0418 42.4187 29.7209 42.1678 27.4001 41.9378C23.9711 41.6033 20.6466 40.6833 17.343 39.7633C16.3185 39.4706 15.2312 39.3661 14.1858 39.1988C13.9349 39.157 13.7049 39.1152 13.5376 39.4497C13.2449 40.0979 12.6595 40.3279 11.9695 40.3279C10.0459 40.3279 8.12227 40.3279 6.21958 40.3279C5.65505 40.3279 5.06961 40.3488 4.50507 40.3279C3.08328 40.2651 2.30966 39.4915 2.30966 38.0697C2.30966 37.4843 2.3933 36.8779 2.60238 36.3552C3.29237 34.6198 3.06237 32.9889 2.1633 31.379C1.38968 29.9572 0.929688 28.4099 0.929688 26.7372C0.929688 25.5245 1.24332 24.4164 1.87058 23.3918C2.07967 23.0573 2.28875 22.7018 2.51875 22.3882C3.48055 21.1128 3.83599 19.7119 3.48055 18.1438C3.29237 17.3283 3.41782 16.5129 3.8569 15.802C4.27508 15.112 4.88143 14.7565 5.69687 14.7984C7.74592 14.9238 9.79497 15.0075 11.844 15.112C12.1995 15.112 12.5758 15.112 12.9313 15.2165C13.3285 15.342 13.8094 15.5093 14.0394 15.8229C14.374 16.3038 14.7503 16.262 15.1894 16.1992C17.573 15.9274 19.7684 15.0702 21.9847 14.2338C25.4556 12.9166 28.9473 11.6621 32.5854 10.9094C34.6763 10.4703 36.6208 9.61301 38.5026 8.63031C39.2971 8.23304 40.1753 7.96123 41.0325 7.79396C42.2243 7.54305 43.0189 8.10759 43.1861 9.29938C43.3116 10.0939 43.3116 10.9303 43.1234 11.7039C42.4752 14.3593 40.928 16.3247 38.419 17.4747C37.2899 17.9974 36.1608 18.5201 35.0527 19.0637C34.6554 19.2519 34.3209 19.5446 33.9445 19.7746C33.9445 19.8164 33.9863 19.8583 34.0072 19.9001C34.9063 19.8583 35.8054 19.8165 36.7254 19.7537C38.5444 19.6492 40.3426 19.5028 42.1616 19.461C48.2251 19.2728 54.2886 19.1265 60.3522 18.9801C60.854 18.9801 61.3558 19.001 61.8367 19.1056C63.3212 19.4192 63.9694 20.6737 63.4676 22.0955C63.133 23.0364 62.443 23.6427 61.5858 24.0818C60.0803 24.8554 58.4704 25.3154 56.8395 25.6709C56.7768 25.6709 56.7141 25.7127 56.6513 25.8172C57.3413 25.8172 58.0313 25.8172 58.7213 25.8172C60.2476 25.8172 61.753 25.8172 63.2794 25.8591C63.5303 25.8591 63.7812 25.9427 64.0321 26.0472C65.5793 26.6327 66.0184 28.2008 64.9103 29.4135C64.3875 29.9572 63.7185 30.4172 63.0285 30.7308C61.2721 31.5671 59.3695 31.8808 57.4459 31.9853C53.2014 32.2362 48.9569 32.3826 44.7125 32.6335C42.6007 32.7589 40.5098 32.9471 38.419 33.1562C37.5826 33.2398 36.7881 33.4907 36.1817 34.118C35.0736 35.2471 35.4081 36.6688 36.9344 37.0661C37.8544 37.2961 38.7953 37.3797 39.7571 37.4425C42.4543 37.6306 45.1097 37.547 47.6606 36.4807C47.9951 36.3343 48.3297 36.1879 48.6433 35.9998C50.1069 35.1634 50.3578 34.3271 49.6051 32.8844C49.6469 32.8426 49.6678 32.8217 49.7096 32.7798C49.8978 32.968 50.1278 33.1144 50.2324 33.3444C50.5669 34.0344 50.5042 34.7662 50.0233 35.3516C49.6469 35.8116 49.1869 36.2298 48.6851 36.5225C47.0124 37.4843 45.1516 37.9861 43.2489 38.0279C41.2834 38.0697 39.318 37.9443 37.3526 37.8816C37.2063 37.8816 37.0599 37.7979 36.9135 37.7561C35.9726 37.547 35.2408 37.0661 34.969 36.1043C34.6763 35.1425 35.0527 34.3271 35.7008 33.658C35.9935 33.3444 36.3699 33.0726 36.7463 32.9262C37.3526 32.6962 38.0008 32.4871 38.628 32.4244C41.1162 32.2153 43.5834 32.048 46.0715 31.9017C49.9815 31.6717 53.9123 31.4835 57.8222 31.2535C59.5158 31.149 61.1885 30.8353 62.7358 30.1035C63.363 29.8108 63.9903 29.3926 64.4503 28.9117C65.203 28.1381 64.9312 27.1554 63.9485 26.7372C63.5512 26.57 63.1121 26.4863 62.6939 26.4863C60.7494 26.4654 58.784 26.4863 56.8395 26.4863C54.1423 26.5072 51.4451 26.57 48.7478 26.6118C47.4097 26.6118 46.0506 26.6118 44.7125 26.6118C44.6079 26.6118 44.5243 26.6327 44.4197 26.6536V27.4481C43.9598 27.2808 43.9598 26.4654 44.4197 25.4409C44.4616 25.6291 44.5034 25.7754 44.5243 25.9218C45.5279 25.9218 46.5106 25.9218 47.4933 25.9218C50.4833 25.9636 53.4314 25.7336 56.3586 25.1691C58.0522 24.8345 59.7249 24.3745 61.2721 23.6009C61.9203 23.2664 62.5058 22.8273 62.8403 22.1582C63.4048 21.0082 62.8821 19.921 61.6067 19.7119C61.1885 19.6283 60.7494 19.6074 60.3103 19.6283C58.8049 19.6283 57.2995 19.6492 55.7941 19.691C52.6578 19.7537 49.5006 19.7955 46.3643 19.9001C42.308 20.0046 38.2517 20.1719 34.1954 20.2764C33.6309 20.2764 33.38 20.5483 33.2127 20.9873C32.8991 21.8028 32.6063 22.6391 32.2509 23.4337C31.31 25.4827 29.8673 27.1554 28.111 28.5354C28.0064 28.619 27.8392 28.619 27.7137 28.6608C27.6928 28.619 27.651 28.5563 27.6301 28.5145C27.7555 28.389 27.881 28.2636 28.0064 28.1381C30.0137 26.2981 31.5191 24.1445 32.2509 21.5101C32.6691 20.0674 33.4636 18.9592 34.8227 18.311C35.8263 17.8301 36.8508 17.3492 37.8753 16.9101C40.2589 15.8647 41.7643 14.0666 42.4125 11.5784C42.5798 10.9094 42.5798 10.1357 42.4961 9.44574C42.4125 8.67212 42.0152 8.3794 41.2834 8.52576C40.4053 8.69303 39.4853 8.94393 38.6908 9.36211C36.7044 10.3866 34.6554 11.223 32.46 11.683C29.5328 12.2893 26.6892 13.2302 23.8874 14.2547C22.0684 14.9238 20.2702 15.6347 18.4303 16.1783C17.1966 16.5547 15.9212 16.7011 14.6249 16.952C15.273 24.1655 16.0467 31.4626 13.8931 38.6134C15.2103 38.8015 16.4857 38.9061 17.7403 39.1988C20.3957 39.8052 22.9674 40.7042 25.7065 41.0388C27.9646 41.3315 30.2228 41.7078 32.5227 41.5824C33.2127 41.5406 33.9236 41.436 34.6136 41.3524C34.4463 39.4497 35.2199 38.2788 36.8926 37.8188L36.9135 37.7979Z" fill="#080A1E"/>
<path d="M28.0488 5.26358C28.0488 5.26358 28.216 5.43085 28.2787 5.51449C28.9896 6.37174 29.7214 7.20809 30.4323 8.06535C30.4951 8.14898 30.516 8.29534 30.5369 8.39989C30.4323 8.39989 30.3069 8.39989 30.2233 8.33716C29.2615 7.62626 28.4669 6.76901 27.9024 5.72357C27.8397 5.59812 27.9024 5.40995 27.9024 5.26358C27.9442 5.26358 28.0069 5.26358 28.0488 5.24268V5.26358Z" fill="#080A1E"/>
<path d="M40.3636 0.413086C40.1127 2.02305 39.8827 3.50757 39.6527 4.99209C39.1718 4.40665 39.6109 1.12398 40.3636 0.413086Z" fill="#080A1E"/>
<path d="M33.7559 2.02246C34.2368 2.127 35.2613 5.66057 35.0104 6.2042C34.5922 4.80332 34.174 3.42334 33.7559 2.02246Z" fill="#080A1E"/>
<path d="M47.0122 3.54924C46.9495 3.6747 46.9286 3.77924 46.8659 3.86288C46.4059 4.44832 45.9668 5.03376 45.5068 5.5983C45.4441 5.66102 45.3186 5.68193 45.235 5.74466C45.235 5.66102 45.1723 5.55648 45.2141 5.51466C45.7368 4.84558 46.2804 4.1765 46.8241 3.52834C46.8241 3.50743 46.9077 3.52834 47.0331 3.52834L47.0122 3.54924Z" fill="#080A1E"/>
<path d="M28.2993 37.3794C30.9756 34.3476 32.7738 30.8768 33.7774 26.9878C33.0247 31.0023 31.2265 34.494 28.5293 37.5049C28.4457 37.463 28.362 37.4212 28.2993 37.3585V37.3794Z" fill="#080A1E"/>
<path d="M36.4954 26.6948C36.14 28.7021 35.5963 30.6675 34.6973 32.5493C35.3036 30.6047 35.8891 28.6393 36.4954 26.6948Z" fill="#080A1E"/>
</svg>
